<svg 
 xmlns="http://www.w3.org/2000/svg"
 xmlns:xlink="http://www.w3.org/1999/xlink"
 width="15px" height="19px">
<path fill-rule="evenodd"  fill="rgb(99, 99, 99)"
 d="M12.106,11.670 C12.183,11.760 12.253,11.859 12.314,11.966 L14.726,16.227 C15.225,17.109 14.929,18.238 14.064,18.747 C13.198,19.257 12.092,18.955 11.593,18.072 L9.181,13.811 C9.149,13.755 9.130,13.697 9.105,13.639 C6.365,14.463 3.329,13.313 1.838,10.678 C0.090,7.589 1.127,3.639 4.155,1.856 C7.183,0.073 11.055,1.131 12.804,4.220 C14.188,6.666 13.820,9.648 12.106,11.670 ZM5.361,3.987 C3.487,5.091 2.844,7.536 3.927,9.448 C5.009,11.360 7.406,12.015 9.280,10.911 C11.155,9.807 11.797,7.362 10.715,5.450 C9.633,3.538 7.236,2.883 5.361,3.987 Z"/>
</svg>