<svg 
 xmlns="http://www.w3.org/2000/svg"
 xmlns:xlink="http://www.w3.org/1999/xlink"
 width="44px" height="44px">
<path fill-rule="evenodd"  fill="rgb(129, 131, 194)"
 d="M22.000,-0.000 C34.150,-0.000 44.000,9.850 44.000,22.000 C44.000,34.150 34.150,44.000 22.000,44.000 C9.850,44.000 -0.000,34.150 -0.000,22.000 C-0.000,9.850 9.850,-0.000 22.000,-0.000 Z"/>
<path fill-rule="evenodd"  fill="rgb(255, 255, 255)"
 d="M33.167,21.268 C32.191,22.244 30.608,22.244 29.632,21.268 L24.000,15.636 L24.000,35.500 C24.000,36.881 22.881,38.000 21.500,38.000 C20.119,38.000 19.000,36.881 19.000,35.500 L19.000,15.636 L13.368,21.268 C12.392,22.244 10.809,22.244 9.833,21.268 C8.856,20.291 8.856,18.708 9.833,17.732 L19.732,7.832 C20.708,6.856 22.291,6.856 23.268,7.832 L33.167,17.732 C34.144,18.708 34.144,20.291 33.167,21.268 Z"/>
</svg>